<?xml version="1.0" standalone="no"?>
<!DOCTYPE svg PUBLIC "-//W3C//DTD SVG 20010904//EN"
 "http://www.w3.org/TR/2001/REC-SVG-20010904/DTD/svg10.dtd">
<svg version="1.0" xmlns="http://www.w3.org/2000/svg"
 width="894.000000pt" height="894.000000pt" viewBox="0 0 894.000000 894.000000"
 preserveAspectRatio="xMidYMid meet">
<metadata>
Created by potrace 1.14, written by Peter Selinger 2001-2017
</metadata>
<g transform="translate(0.000000,894.000000) scale(0.100000,-0.100000)"
fill="#000000" stroke="none">
<path d="M4800 8323 c-44 -6 -190 -73 -221 -102 -80 -74 -116 -116 -172 -201
-58 -87 -76 -123 -112 -220 -7 -19 -16 -72 -20 -118 -4 -45 -12 -85 -18 -89
-6 -3 -24 11 -41 33 -61 77 -121 136 -190 187 -75 56 -189 127 -202 127 -4 0
-24 11 -43 24 -55 38 -184 76 -282 83 -78 5 -92 3 -134 -17 -27 -13 -70 -43
-97 -67 -28 -24 -57 -43 -66 -41 -10 2 -24 17 -32 34 -43 86 -192 244 -232
244 -25 0 -88 -35 -88 -48 0 -5 -9 -20 -21 -33 -43 -50 -87 -148 -116 -259
-59 -221 -92 -439 -93 -607 0 -95 -8 -92 -191 66 -118 101 -120 103 -209 173
-47 37 -94 76 -105 86 -11 11 -25 21 -31 23 -6 2 -28 18 -48 34 -112 91 -364
275 -375 275 -5 0 -14 7 -21 15 -7 9 -45 37 -84 62 -39 25 -89 58 -111 73 -22
15 -47 30 -55 33 -8 4 -28 15 -45 25 -190 115 -459 203 -580 188 -66 -7 -160
-50 -203 -91 -29 -28 -36 -44 -48 -111 -18 -102 -17 -141 5 -244 24 -115 155
-379 229 -460 12 -14 22 -28 22 -32 0 -3 6 -13 13 -20 7 -7 43 -51 80 -98 37
-47 71 -89 77 -95 5 -5 24 -27 42 -49 36 -42 39 -45 112 -123 l48 -52 -27 -33
c-26 -31 -27 -36 -22 -104 15 -168 87 -358 220 -573 l51 -84 -33 -28 c-19 -15
-46 -34 -61 -41 -64 -31 -237 -182 -294 -257 -51 -67 -96 -162 -96 -203 0 -18
12 -45 29 -67 26 -32 39 -39 98 -51 84 -18 193 -16 268 4 55 14 85 13 85 -4 0
-4 -27 -36 -60 -71 -33 -35 -60 -67 -60 -71 0 -4 -13 -21 -28 -37 -35 -39 -92
-149 -92 -178 0 -12 11 -30 25 -40 72 -51 71 -40 18 -118 l-48 -70 0 -95 c0
-92 1 -97 36 -153 77 -122 240 -219 407 -242 29 -4 55 -11 58 -16 3 -5 0 -24
-7 -42 -10 -28 -9 -41 6 -80 9 -25 26 -54 36 -63 11 -9 19 -23 19 -30 0 -6
-34 -47 -76 -91 -41 -43 -89 -98 -106 -123 -17 -25 -45 -65 -62 -89 -70 -98
-211 -345 -227 -396 -3 -11 -18 -45 -33 -77 -24 -51 -41 -102 -68 -213 -6 -22
-9 -71 -8 -109 2 -84 41 -171 92 -208 30 -21 43 -23 148 -23 109 0 224 18 236
37 6 9 54 11 54 2 0 -4 -9 -39 -21 -77 -18 -62 -21 -90 -17 -222 4 -126 8
-159 27 -205 63 -153 141 -181 291 -104 36 19 79 37 97 40 30 6 34 3 60 -41
41 -69 132 -159 191 -189 57 -29 57 -29 42 -57 -19 -34 -60 -188 -70 -262 -12
-84 -8 -112 32 -192 25 -51 37 -64 80 -85 55 -27 147 -32 188 -10 11 6 60 18
108 26 53 10 115 29 161 51 48 23 78 33 86 27 49 -37 98 -63 143 -78 59 -20
65 -35 32 -88 -11 -18 -20 -41 -20 -50 0 -23 56 -77 88 -85 44 -11 174 33 224
75 35 30 45 10 40 -80 -2 -45 -9 -88 -14 -94 -6 -9 -19 -9 -51 1 -38 11 -57
10 -177 -16 -203 -42 -311 -97 -500 -256 -8 -7 -30 -25 -48 -40 -71 -59 -199
-194 -297 -313 -83 -102 -113 -142 -199 -272 -27 -40 -62 -92 -77 -116 -16
-23 -29 -45 -29 -48 0 -3 -16 -30 -35 -60 -19 -30 -35 -59 -35 -64 0 -6 13
-10 28 -10 23 0 32 8 50 45 12 24 40 75 63 112 23 38 47 77 53 88 6 11 21 34
34 52 12 17 22 34 22 38 0 17 147 205 160 205 4 0 11 -10 17 -23 28 -60 254
-189 397 -225 43 -11 80 -22 82 -25 2 -2 -17 -39 -43 -81 -64 -102 -102 -169
-103 -178 0 -5 83 -8 185 -8 105 0 185 4 185 9 0 5 21 20 47 32 45 22 62 23
303 27 283 5 379 -3 491 -43 40 -14 93 -25 118 -25 l46 0 -61 35 c-79 45 -199
71 -395 86 -152 12 -212 9 -428 -18 -40 -5 -43 -4 -35 13 4 11 9 134 9 274 0
208 4 268 18 324 12 48 14 73 7 80 -14 14 -25 0 -45 -62 -11 -36 -27 -60 -50
-78 -18 -13 -39 -39 -46 -57 -7 -18 -44 -85 -83 -151 l-71 -118 -51 5 c-113
12 -244 62 -343 131 -50 35 -120 106 -121 121 0 12 174 190 217 222 16 12 47
30 69 40 21 9 50 25 64 34 14 9 36 20 50 24 14 4 52 20 85 36 68 31 156 59
263 84 56 14 94 16 167 10 l95 -7 10 -41 c17 -68 41 -109 105 -172 50 -51 73
-66 140 -90 164 -61 331 -31 443 78 30 29 60 65 69 81 13 25 16 27 30 13 18
-18 29 -147 38 -462 6 -245 30 -435 53 -435 12 0 13 12 8 58 -7 69 2 89 33 73
11 -7 21 -17 21 -22 0 -6 18 -33 41 -60 l41 -49 146 1 c141 0 146 1 122 17
-13 9 -33 27 -44 40 -11 12 -24 22 -28 22 -18 0 -57 56 -58 82 0 48 40 195 66
242 18 32 39 53 66 66 40 19 41 19 62 1 11 -11 38 -34 59 -52 21 -19 54 -47
72 -64 146 -130 301 -196 465 -197 150 -1 403 95 559 211 19 15 49 35 67 46
28 17 73 47 190 126 131 87 167 111 214 141 63 40 97 59 160 88 25 12 68 32
97 46 28 13 58 24 65 24 7 1 31 8 53 16 103 39 319 78 517 94 219 18 604 -13
813 -66 168 -43 423 -134 461 -165 6 -5 40 -23 75 -40 74 -36 275 -167 303
-198 25 -27 36 -27 36 2 -1 35 -178 169 -300 228 -128 62 -164 77 -450 184
-36 14 -85 29 -110 35 -25 5 -67 16 -95 25 -77 24 -375 56 -525 57 -182 0
-518 -43 -660 -84 -171 -50 -320 -113 -428 -180 -21 -13 -49 -30 -64 -38 -40
-23 -171 -109 -242 -160 -35 -25 -72 -51 -82 -57 -11 -7 -35 -24 -54 -37 -19
-14 -55 -37 -80 -52 -25 -15 -47 -30 -50 -34 -14 -17 -150 -85 -223 -110 -169
-58 -265 -61 -407 -13 -76 26 -191 87 -245 130 -16 13 -45 36 -63 51 -19 15
-79 74 -135 131 -272 276 -442 441 -456 441 -5 0 -19 16 -31 37 -21 35 -21 37
-3 55 17 16 24 17 75 6 54 -11 143 -4 215 17 17 6 25 1 37 -24 14 -26 22 -31
54 -31 35 0 56 9 162 68 22 12 44 21 49 18 4 -3 6 -29 3 -58 -11 -139 89 -346
206 -427 77 -53 188 5 283 148 28 42 53 78 55 80 5 6 44 -30 44 -41 0 -20 61
-70 105 -84 43 -15 51 -15 112 1 36 10 91 35 123 57 58 38 160 140 160 159 0
6 9 20 20 32 12 12 23 32 26 44 4 13 12 23 19 23 15 0 45 -27 45 -39 0 -5 24
-25 53 -45 86 -60 167 -45 285 51 209 170 316 388 284 575 -7 38 -10 73 -7 78
3 4 16 11 30 14 40 10 170 73 228 110 125 81 370 314 488 466 98 126 87 119
123 78 45 -52 89 -72 130 -58 86 28 135 144 143 338 3 74 1 148 -6 185 -14 75
-49 176 -69 199 -13 15 -13 27 2 100 29 144 65 437 75 598 5 85 18 230 27 321
l18 166 43 17 c48 20 76 67 92 151 11 59 -13 137 -55 176 -14 13 -33 37 -41
53 -14 27 -14 31 1 42 9 6 36 15 60 18 55 9 164 73 193 115 57 84 31 162 -96
284 -44 42 -97 87 -118 100 -21 13 -44 32 -52 41 -7 9 -18 16 -24 16 -5 0 -24
11 -41 23 -38 29 -165 97 -180 97 -21 -1 -156 55 -156 64 0 5 36 45 80 88 172
171 270 320 342 518 57 160 69 240 76 530 l7 265 33 72 c18 40 48 132 66 205
93 364 31 803 -137 974 -12 12 -26 27 -32 33 -41 46 -148 90 -236 98 -46 5
-66 1 -110 -19 -30 -14 -61 -31 -69 -39 -9 -8 -36 -29 -60 -48 -95 -74 -216
-190 -302 -291 -49 -58 -97 -114 -107 -125 -30 -34 -133 -158 -186 -225 -27
-34 -72 -88 -100 -119 -27 -31 -75 -85 -105 -121 -107 -123 -122 -140 -130
-140 -4 0 -11 21 -15 48 -9 66 -38 126 -84 178 -71 81 -138 117 -248 134 -99
16 -177 -6 -286 -80 -52 -35 -57 -36 -83 -12 -50 46 -94 71 -146 82 -48 11
-63 11 -107 -4 -75 -24 -75 -25 -68 52 9 96 -15 271 -51 377 -43 128 -112 242
-194 324 -103 102 -191 147 -298 154 -41 3 -91 3 -110 0z m-3882 -89 c131 -44
285 -118 437 -209 19 -11 59 -35 89 -53 31 -18 58 -38 62 -43 3 -6 16 -14 28
-19 12 -4 53 -30 90 -57 37 -26 75 -52 84 -58 19 -11 51 -34 166 -121 43 -32
88 -66 99 -74 12 -8 31 -24 43 -35 12 -11 28 -24 36 -30 46 -34 325 -263 448
-368 8 -7 39 -33 68 -57 30 -25 59 -59 67 -76 17 -41 53 -74 82 -74 28 0 70
-26 96 -57 10 -13 24 -23 30 -23 7 0 24 -12 39 -27 14 -16 45 -44 68 -63 24
-19 50 -42 59 -50 40 -36 158 -138 180 -156 13 -10 37 -30 52 -44 15 -14 45
-40 66 -58 72 -63 166 -147 192 -172 15 -14 60 -54 101 -89 41 -35 82 -71 90
-80 37 -39 220 -201 227 -201 40 1 39 59 -2 104 -13 14 -29 34 -37 44 -10 14
-161 147 -258 227 -68 56 -265 263 -300 315 -24 36 -47 67 -51 70 -3 3 -14 19
-23 37 -9 18 -22 36 -28 40 -7 4 -22 24 -32 43 -11 19 -29 47 -40 61 -12 15
-52 77 -91 138 -38 61 -98 154 -132 206 -35 53 -63 100 -63 105 0 6 -8 18 -18
28 -10 10 -34 45 -53 76 -19 32 -42 72 -53 90 -17 29 -18 39 -7 141 21 190 27
212 88 343 22 46 95 132 113 132 15 0 151 -139 169 -172 12 -21 29 -53 39 -70
10 -18 24 -52 30 -75 13 -42 52 -83 80 -83 12 0 14 10 9 56 -7 69 18 132 67
167 27 19 46 22 147 25 114 4 118 3 200 -31 171 -71 269 -138 409 -277 109
-110 128 -135 136 -177 13 -71 21 -85 44 -73 11 6 20 18 20 26 0 12 7 14 29 9
41 -9 48 8 54 150 6 146 26 234 80 343 91 187 276 306 448 288 100 -10 198
-58 277 -134 108 -105 197 -291 207 -437 3 -38 11 -118 17 -177 10 -105 12
-108 44 -133 36 -27 59 -30 118 -14 52 15 107 -7 165 -66 28 -28 54 -45 68
-45 24 0 82 33 143 80 74 58 254 62 325 7 71 -55 105 -91 105 -111 0 -25 -47
-120 -113 -228 -26 -42 -47 -80 -47 -85 0 -5 -16 -33 -35 -63 -19 -30 -35 -62
-35 -70 0 -9 -11 -31 -24 -50 -13 -19 -26 -46 -30 -60 -4 -14 -17 -45 -28 -70
-11 -25 -21 -63 -22 -86 -1 -31 -11 -54 -44 -97 -23 -31 -42 -61 -42 -66 0 -6
-6 -14 -13 -18 -8 -4 -22 -21 -33 -38 -10 -16 -35 -51 -56 -76 -21 -25 -38
-49 -38 -53 0 -8 -37 -62 -58 -85 -7 -7 -21 -26 -30 -40 -9 -14 -38 -54 -65
-89 -51 -67 -77 -118 -77 -152 0 -26 6 -25 37 3 36 32 42 39 149 172 53 66
109 136 125 155 52 63 69 84 135 170 91 117 117 151 137 180 19 27 33 45 147
196 41 54 82 108 90 120 32 46 195 260 205 269 6 6 31 37 55 70 25 33 58 76
75 95 16 20 41 50 55 69 14 18 54 68 90 110 36 42 76 92 90 110 14 18 30 38
35 44 6 7 46 55 90 107 110 132 256 276 347 344 42 31 80 66 83 77 11 34 92
79 143 79 57 0 138 -34 185 -79 124 -116 194 -383 184 -701 -7 -231 -2 -215
-218 -655 -21 -43 -39 -87 -39 -97 0 -27 31 -22 70 12 43 36 58 38 56 6 0 -13
-4 -22 -8 -20 -3 2 -9 -23 -13 -56 -4 -33 -11 -60 -16 -60 -5 0 -9 -16 -9 -35
0 -19 -4 -35 -10 -35 -19 0 -32 -42 -25 -86 6 -41 25 -63 25 -28 0 8 5 12 10
9 6 -3 14 4 19 17 10 23 10 22 10 -4 1 -48 -46 -253 -68 -296 -12 -23 -21 -49
-21 -59 0 -10 -9 -29 -20 -43 -11 -14 -20 -30 -20 -36 0 -10 -36 -67 -109
-170 -34 -49 -117 -139 -200 -217 -25 -23 -54 -52 -65 -63 -12 -12 -45 -36
-73 -53 -29 -18 -53 -37 -53 -42 0 -5 -4 -9 -9 -9 -5 0 -45 -25 -90 -55 -44
-30 -96 -61 -113 -70 -34 -15 -69 -36 -78 -45 -11 -12 -260 -131 -311 -149
-30 -10 -74 -28 -99 -39 -72 -33 -200 -82 -239 -91 -20 -5 -60 -18 -90 -30
-29 -11 -87 -28 -127 -37 -83 -18 -111 -42 -93 -76 6 -11 9 -21 7 -23 -15 -12
-71 -35 -89 -35 -23 0 -105 -48 -112 -65 -7 -16 146 8 268 40 55 15 118 31
140 36 65 14 122 37 105 42 -8 3 -22 8 -30 10 -12 4 -11 6 3 6 9 1 17 7 17 14
0 8 2 9 8 1 10 -16 52 -28 52 -15 0 6 6 11 14 11 8 0 16 7 20 15 7 19 26 19
26 0 0 -8 5 -15 10 -15 6 0 10 7 10 16 0 13 6 15 27 9 22 -5 25 -4 15 8 -16
19 -5 27 35 27 18 0 33 5 33 10 0 6 9 10 21 10 11 0 29 5 40 10 13 7 19 7 19
0 0 -5 -5 -10 -12 -10 -6 0 -9 -3 -6 -6 9 -9 68 25 68 39 0 6 43 26 95 43 52
17 95 27 95 22 0 -4 7 -5 16 -1 13 5 13 7 2 14 -7 5 -10 9 -5 10 16 3 24 6 61
22 21 9 47 17 57 17 11 0 36 11 57 25 20 13 51 29 68 35 18 6 35 21 39 33 7
22 7 22 15 -3 7 -23 8 -23 9 -4 1 17 10 23 39 29 20 4 42 11 49 16 24 21 128
69 160 75 18 3 38 15 44 25 5 11 19 19 29 19 22 0 27 16 7 23 -30 13 23 5 89
-12 68 -17 143 -64 264 -163 59 -48 180 -172 180 -184 0 -10 -10 -16 -106 -63
-27 -13 -56 -28 -64 -33 -8 -4 -39 -20 -67 -34 -60 -29 -86 -59 -73 -83 5 -9
8 -23 8 -31 -3 -41 6 -59 53 -110 60 -65 88 -121 89 -174 l0 -39 -48 6 c-28 3
-69 18 -98 36 -131 80 -274 94 -864 86 -423 -6 -726 -19 -845 -37 -101 -14
-351 -75 -386 -94 -19 -9 -53 -14 -92 -13 -34 1 -74 -2 -88 -5 -17 -5 -47 1
-90 18 -67 26 -153 49 -228 61 -31 5 -40 10 -30 16 8 5 25 7 39 4 14 -3 32 -1
40 5 27 17 -5 33 -72 35 -80 4 -205 20 -333 45 -55 10 -138 24 -185 31 -109
15 -199 45 -225 74 -22 22 -76 43 -170 63 -244 53 -352 83 -590 163 -82 27
-169 55 -192 60 -24 6 -43 15 -43 20 0 5 -8 9 -18 9 -10 0 -26 6 -37 13 -11 7
-40 19 -64 26 -25 7 -53 24 -64 37 -10 13 -24 24 -30 24 -7 0 -6 -4 3 -10 21
-14 -3 -13 -34 1 -14 7 -23 15 -21 20 3 4 0 11 -6 15 -6 3 -15 1 -19 -6 -4 -7
-13 -9 -20 -5 -9 6 -9 9 1 16 10 6 3 9 -19 9 -18 0 -32 3 -30 8 2 4 -11 23
-29 42 -23 23 -33 29 -33 18 0 -9 -7 -19 -16 -22 -8 -3 -13 -2 -10 3 7 10 -53
72 -68 70 -6 -1 -18 0 -26 3 -8 4 -24 9 -35 13 -16 5 -17 8 -5 15 10 6 11 10
3 10 -11 0 -71 36 -99 59 -6 4 -25 7 -42 6 -17 -2 -30 1 -27 5 3 5 -1 11 -7
14 -7 3 -2 3 11 0 39 -10 16 11 -44 41 -35 17 -53 31 -49 38 4 7 4 9 -1 5 -4
-4 -15 -2 -23 5 -12 9 -16 9 -19 0 -3 -7 -9 -13 -14 -13 -4 0 -6 6 -3 14 5 14
-64 76 -85 76 -6 0 -11 8 -11 18 0 13 -2 14 -9 3 -7 -10 -15 -7 -38 18 -17 17
-37 31 -46 31 -9 0 -20 6 -24 13 -12 21 -45 29 -55 15 -6 -9 -7 -5 -3 10 4 13
2 22 -4 22 -6 0 -21 11 -33 25 -12 14 -30 25 -40 25 -10 0 -18 5 -18 10 0 6
-11 15 -25 20 -14 5 -25 14 -25 20 0 5 -5 10 -11 10 -6 0 -25 10 -42 22 -18
13 -35 23 -39 23 -3 0 -19 11 -35 25 -15 14 -41 34 -58 44 -16 10 -37 25 -45
32 -29 27 -120 94 -126 94 -20 0 -297 256 -376 348 -47 54 -113 191 -127 262
-21 110 -43 251 -39 255 2 2 69 -56 149 -128 80 -73 160 -143 179 -157 18 -14
64 -50 101 -80 113 -92 171 -130 208 -136 20 -3 48 -12 63 -20 14 -8 33 -14
42 -14 9 0 16 -4 16 -8 0 -18 241 -105 265 -96 8 3 17 15 20 25 7 20 -16 45
-65 71 -14 7 -31 19 -38 26 -7 6 -17 12 -22 12 -5 0 -15 6 -23 14 -7 8 -38 30
-68 50 -30 20 -81 56 -114 81 -33 24 -65 44 -71 44 -7 1 -14 7 -17 15 -6 15
-102 91 -143 114 -13 7 -24 17 -24 22 0 6 -17 21 -38 34 -22 13 -45 30 -53 38
-8 7 -30 25 -49 39 -57 43 -289 284 -317 332 -10 15 -20 27 -24 27 -4 0 -18
17 -30 38 -13 20 -29 43 -37 51 -8 8 -25 31 -38 53 -13 21 -29 38 -34 38 -5 0
-12 11 -16 24 -3 13 -17 34 -30 47 -13 12 -24 27 -24 32 0 5 -13 26 -29 46
-17 21 -36 50 -43 67 -7 16 -15 31 -18 34 -3 3 -29 43 -57 90 -89 149 -118
221 -159 395 -27 112 -26 115 12 152 33 31 40 33 106 33 49 0 92 -8 146 -26z
m6979 -1686 c-3 -7 -5 -2 -5 12 0 14 2 19 5 13 2 -7 2 -19 0 -25z m-6591 -643
c38 -36 90 -82 117 -102 26 -21 47 -40 47 -45 0 -15 -87 -57 -150 -72 -36 -9
-94 -25 -130 -36 -87 -26 -240 -41 -247 -23 -5 12 43 104 76 148 37 47 190
195 203 195 8 0 46 -29 84 -65z m709 -135 c3 -5 1 -10 -4 -10 -6 0 -11 5 -11
10 0 6 2 10 4 10 3 0 8 -4 11 -10z m90 -60 c3 -5 -1 -10 -10 -10 -9 0 -13 5
-10 10 3 6 8 10 10 10 2 0 7 -4 10 -10z m-433 -93 c24 -18 50 -36 58 -39 8 -3
55 -33 104 -67 50 -33 95 -61 102 -61 6 0 17 -7 25 -16 7 -9 38 -29 68 -45 31
-16 79 -42 106 -57 28 -16 86 -47 130 -71 44 -23 84 -46 90 -52 5 -5 17 -9 27
-9 10 0 18 -3 18 -8 0 -4 15 -13 33 -21 17 -8 91 -42 164 -77 73 -35 136 -64
140 -64 4 0 35 -14 68 -30 33 -16 66 -30 73 -30 7 0 32 -11 55 -23 23 -13 60
-30 82 -37 22 -7 49 -18 60 -25 11 -6 47 -21 80 -33 33 -11 110 -39 170 -62
61 -23 119 -44 130 -47 11 -3 61 -17 110 -33 50 -15 104 -31 120 -34 17 -4 68
-18 115 -31 133 -39 326 -82 425 -95 50 -7 100 -16 112 -21 13 -5 80 -15 151
-23 70 -9 175 -24 232 -36 58 -11 142 -20 187 -20 154 0 93 -17 -85 -23 -97
-4 -226 -11 -287 -17 -60 -5 -238 -14 -395 -20 -306 -11 -616 -32 -825 -56
-71 -8 -179 -19 -240 -25 -134 -13 -213 -47 -281 -123 l-44 -48 -33 15 c-17 8
-59 20 -92 27 -159 32 -376 125 -535 228 -47 31 -100 61 -118 67 -18 6 -41 21
-51 32 -16 17 -36 21 -123 26 -189 11 -414 96 -536 202 -35 30 -67 55 -73 55
-36 0 23 156 90 240 15 19 35 49 44 65 8 17 27 37 41 45 17 9 26 22 26 38 0
25 -1 25 -67 18 -38 -4 -85 -9 -106 -13 -33 -5 -37 -4 -31 13 14 38 87 125
199 238 64 64 120 116 125 116 12 0 90 77 90 89 0 20 28 11 72 -22z m708 -127
c-8 -5 -19 -10 -25 -10 -5 0 -3 5 5 10 8 5 20 10 25 10 6 0 3 -5 -5 -10z m330
-190 c0 -5 -4 -10 -10 -10 -5 0 -10 5 -10 10 0 6 5 10 10 10 6 0 10 -4 10 -10z
m76 -55 c-8 -8 -20 -15 -26 -15 -16 0 12 29 28 30 10 0 10 -4 -2 -15z m29 -35
c19 -8 19 -9 -2 -9 -12 -1 -25 4 -28 9 -7 12 2 12 30 0z m115 -51 c0 -4 -7 -6
-15 -3 -8 4 -15 10 -15 15 0 4 7 6 15 3 8 -4 15 -10 15 -15z m77 -35 c-3 -3
-12 -4 -19 -1 -8 3 -5 6 6 6 11 1 17 -2 13 -5z m4140 -20 c-3 -3 -12 -4 -19
-1 -8 3 -5 6 6 6 11 1 17 -2 13 -5z m-107 -54 c0 -5 -4 -10 -9 -10 -6 0 -13 5
-16 10 -3 6 1 10 9 10 9 0 16 -4 16 -10z m-435 -150 c-3 -5 -11 -10 -16 -10
-6 0 -7 5 -4 10 3 6 11 10 16 10 6 0 7 -4 4 -10z m-80 -30 c3 -5 -1 -10 -10
-10 -9 0 -13 5 -10 10 3 6 8 10 10 10 2 0 7 -4 10 -10z m-155 -65 c-14 -17
-30 -20 -30 -6 0 5 8 12 18 14 9 3 19 5 21 6 2 0 -2 -6 -9 -14z m-120 -55 c8
-5 11 -10 5 -10 -5 0 -17 5 -25 10 -8 5 -10 10 -5 10 6 0 17 -5 25 -10z m955
-623 c227 -1 363 -6 367 -12 4 -5 8 -49 8 -97 l0 -86 -52 -6 c-101 -13 -504
-16 -753 -8 -187 7 -292 16 -415 35 -174 28 -373 66 -403 76 -16 6 236 57 408
83 94 14 335 25 420 20 33 -2 222 -4 420 -5z m-5420 -84 c44 -24 82 -47 85
-51 5 -7 24 -17 149 -83 30 -16 57 -33 60 -37 4 -5 22 -14 41 -22 19 -7 42
-19 50 -25 8 -7 29 -19 45 -28 97 -50 131 -69 161 -92 18 -14 36 -25 39 -25 4
0 27 -13 52 -30 24 -16 48 -30 53 -30 5 0 29 -13 53 -30 25 -16 49 -30 54 -30
5 0 30 -13 56 -30 26 -16 59 -33 75 -36 15 -4 35 -14 45 -22 22 -20 44 -96 53
-187 3 -38 19 -110 35 -158 16 -49 29 -96 29 -106 0 -9 9 -35 21 -56 11 -22
29 -61 39 -86 10 -25 32 -66 49 -91 17 -25 31 -51 31 -57 0 -48 112 -180 190
-223 82 -46 95 -53 128 -76 31 -23 107 -49 223 -78 75 -18 396 -33 484 -22 39
4 113 12 165 17 63 5 117 17 160 34 36 14 85 31 110 37 24 7 66 23 92 36 26
13 53 24 60 24 7 0 30 9 51 20 20 11 39 20 41 20 2 0 6 -28 8 -61 4 -50 9 -66
29 -82 38 -30 113 -20 182 26 57 38 117 108 117 138 0 9 7 19 15 23 8 3 15 12
15 20 0 9 35 84 78 167 76 148 78 152 147 201 65 47 153 131 249 237 38 43 40
43 90 38 96 -10 266 -110 339 -199 43 -52 105 -179 113 -230 4 -22 11 -35 17
-31 6 4 7 -7 3 -32 -5 -22 -4 -35 2 -31 5 3 12 -6 15 -20 3 -19 1 -24 -11 -19
-13 5 -14 -8 -9 -97 4 -57 3 -164 -2 -239 -7 -128 -9 -138 -34 -165 -15 -16
-27 -32 -27 -36 0 -16 -72 -8 -110 12 -21 11 -45 17 -53 14 -8 -3 -18 0 -23 7
-5 9 -2 10 12 6 28 -11 -46 50 -80 64 -31 13 -82 60 -78 71 1 4 -4 5 -12 2 -8
-3 -17 -1 -20 5 -4 6 -27 8 -54 5 -71 -8 -398 50 -511 90 -55 20 -111 21 -111
2 0 -7 14 -19 30 -26 17 -7 39 -24 49 -39 11 -14 38 -46 61 -71 23 -25 57 -64
77 -87 76 -92 158 -132 342 -169 l83 -16 84 27 83 27 30 -33 30 -33 -82 -78
c-45 -44 -81 -85 -79 -91 2 -7 0 -9 -3 -5 -4 4 -23 -5 -43 -20 -48 -37 -157
-41 -216 -8 -73 40 -79 44 -125 93 -25 26 -58 56 -73 66 -16 9 -28 24 -28 32
0 8 -4 15 -10 15 -10 0 -94 122 -120 174 -29 57 -35 66 -49 71 -23 9 -25 -3
-12 -57 22 -83 79 -163 226 -312 160 -162 255 -214 398 -219 58 -1 87 4 149
27 67 24 88 38 148 98 38 39 70 75 70 80 0 6 13 30 30 55 16 24 30 50 30 58 0
25 23 65 37 65 8 0 29 12 48 26 29 22 36 37 54 113 14 60 21 122 21 195 0 58
3 106 7 106 3 0 14 -6 22 -13 26 -22 97 -40 127 -33 39 10 104 80 104 112 0
13 7 41 15 60 14 33 18 36 47 31 101 -18 253 -19 366 -3 112 16 372 90 372
106 0 4 14 13 31 21 36 14 152 97 200 142 40 36 49 18 49 -100 0 -47 -8 -117
-17 -155 l-17 -70 -60 7 c-85 11 -99 9 -116 -15 -8 -11 -53 -61 -100 -109 -47
-49 -112 -119 -145 -156 -97 -108 -185 -190 -236 -219 -19 -11 -43 -28 -53
-38 -11 -10 -24 -18 -28 -18 -5 0 -31 -16 -59 -35 -28 -19 -57 -35 -65 -35 -7
0 -28 -9 -46 -20 -18 -11 -62 -29 -98 -41 -90 -28 -140 -62 -140 -96 0 -29
-19 -110 -52 -217 -22 -70 -113 -218 -152 -246 -38 -27 -105 -60 -122 -60 -9
0 -31 11 -48 24 -39 29 -111 66 -130 66 -8 0 -27 -10 -43 -23 -15 -13 -36 -26
-45 -30 -9 -3 -24 -21 -32 -39 -28 -59 -75 -107 -142 -144 -61 -34 -70 -36
-130 -31 -58 4 -68 9 -100 41 -39 41 -56 44 -105 19 -23 -12 -56 -18 -100 -17
-59 0 -70 4 -112 36 -44 33 -167 171 -167 187 0 4 -15 15 -34 24 -19 9 -37 25
-41 36 -4 14 -21 24 -48 31 -23 6 -52 16 -64 22 -17 8 -27 8 -45 -3 -18 -11
-41 -13 -103 -7 -44 4 -132 10 -195 12 -63 2 -128 9 -143 15 -16 6 -62 11
-103 11 -43 0 -74 4 -74 10 0 6 -17 10 -37 10 -21 0 -46 7 -55 14 -11 8 -37
12 -70 9 -36 -2 -47 0 -33 6 17 7 13 9 -20 13 -44 5 -143 29 -246 59 -36 10
-73 19 -83 19 -9 0 -63 16 -119 36 -56 20 -116 39 -134 44 -17 4 -51 17 -75
28 -24 11 -64 28 -90 37 -27 10 -48 22 -48 26 0 5 -4 9 -9 9 -6 0 -51 22 -101
49 -79 43 -96 49 -133 45 -43 -5 -157 -53 -157 -66 0 -5 -8 -8 -17 -8 -10 -1
-36 -8 -58 -16 -73 -26 -175 -45 -194 -34 -32 17 -44 64 -37 144 4 40 10 86
15 102 4 16 4 39 0 52 -8 21 -145 189 -198 243 -14 14 -37 45 -51 68 -14 24
-42 61 -62 83 -37 40 -39 41 -91 35 -35 -3 -80 -19 -128 -44 -101 -53 -153
-52 -210 3 l-40 39 2 134 c3 158 11 208 44 277 47 95 25 163 -52 165 -21 1
-42 0 -48 -1 -39 -8 -164 0 -231 15 -62 15 -157 56 -182 80 -7 6 39 175 64
237 74 184 121 272 207 388 27 36 73 99 104 140 30 41 66 92 80 113 28 45 31
45 148 -20z m3120 -18 c-44 -7 -118 -22 -165 -33 -47 -12 -118 -26 -157 -32
-40 -5 -112 -19 -160 -30 -49 -11 -115 -25 -148 -31 -33 -6 -132 -23 -220 -39
-88 -16 -189 -34 -225 -39 -36 -5 -114 -19 -175 -30 -148 -26 -573 -77 -581
-69 -3 4 -8 45 -11 91 -7 101 -26 91 217 112 96 9 256 25 355 35 205 23 518
44 910 61 149 6 272 13 274 15 2 2 41 4 85 3 l81 -1 -80 -13z m263 -46 c4 -45
-44 -416 -63 -489 -7 -30 -20 -82 -28 -115 -38 -154 -116 -311 -192 -389 -90
-91 -257 -161 -545 -230 -323 -76 -618 -72 -839 13 -29 11 -61 27 -71 36 -9 8
-22 15 -29 15 -7 0 -41 28 -75 63 -106 105 -136 159 -176 315 -30 118 -84 457
-75 472 2 4 46 10 97 14 130 10 242 23 393 47 72 12 139 22 149 22 18 2 19 -6
20 -128 1 -124 2 -133 31 -190 56 -111 136 -136 218 -67 118 99 202 258 214
408 l6 61 106 21 c58 12 155 29 214 37 60 9 133 23 162 30 30 8 94 19 142 25
48 6 140 24 203 40 63 15 120 27 125 26 6 -2 11 -18 13 -37z m852 -13 c61 -7
81 -11 179 -36 l39 -10 4 -103 c3 -93 7 -109 41 -178 28 -59 43 -79 67 -89 44
-18 72 -6 132 58 41 44 61 78 81 133 15 41 27 81 27 89 0 33 18 35 212 27 166
-7 662 -3 753 5 l30 3 3 -60 c5 -91 -17 -338 -40 -450 -45 -221 -177 -355
-403 -411 -33 -8 -95 -27 -137 -42 l-76 -26 -234 13 c-292 15 -315 19 -374 62
-119 87 -206 192 -301 364 l-60 110 -16 145 c-9 80 -19 174 -22 210 -3 36 -11
91 -17 122 -13 71 -7 91 24 79 13 -4 52 -11 88 -15z m-340 -260 c5 -13 18 -86
30 -163 11 -76 27 -169 34 -206 12 -61 7 -94 -9 -67 -3 5 -28 10 -54 10 -53 0
-62 -7 -191 -144 -69 -73 -164 -146 -206 -157 -26 -8 -38 -21 -63 -72 -55
-108 -135 -248 -165 -290 -89 -119 -164 -187 -207 -187 -25 0 -29 4 -29 30 0
37 24 129 43 167 9 16 42 53 74 83 83 77 203 233 203 263 0 5 29 55 64 111 50
80 70 123 90 198 14 53 26 111 26 129 0 18 10 64 22 102 18 53 29 72 50 83 16
8 28 18 28 22 0 5 20 29 45 55 44 45 48 46 113 50 37 2 73 4 80 5 7 1 17 -9
22 -22z m667 -982 c38 -15 78 -30 90 -35 15 -5 21 -14 17 -24 -3 -8 -1 -37 6
-64 16 -67 7 -91 -33 -91 -25 0 -41 10 -72 45 -84 93 -95 111 -95 154 0 22 4
41 10 41 5 0 40 -12 77 -26z m-1091 -399 c19 -8 73 -21 120 -29 46 -8 90 -19
98 -23 54 -32 176 -176 176 -208 0 -17 -114 11 -187 46 -59 29 -97 56 -135 96
-29 31 -68 70 -85 86 -30 28 -41 47 -28 47 3 0 22 -7 41 -15z m504 -45 c0 -5
-2 -10 -4 -10 -3 0 -8 5 -11 10 -3 6 -1 10 4 10 6 0 11 -4 11 -10z m125 -100
c3 -5 1 -10 -4 -10 -6 0 -11 5 -11 10 0 6 2 10 4 10 3 0 8 -4 11 -10z m95
-209 c0 -6 -4 -13 -10 -16 -5 -3 -10 1 -10 9 0 9 5 16 10 16 6 0 10 -4 10 -9z
m-170 -175 c0 -3 -4 -8 -10 -11 -5 -3 -10 -1 -10 4 0 6 5 11 10 11 6 0 10 -2
10 -4z m-35 -26 c-3 -5 -15 -10 -26 -10 -11 0 -17 5 -14 10 3 6 15 10 26 10
11 0 17 -4 14 -10z m-98 -26 c-3 -3 -12 -4 -19 -1 -8 3 -5 6 6 6 11 1 17 -2
13 -5z m-2181 -485 c13 -12 32 -27 42 -33 11 -6 44 -30 73 -53 136 -106 158
-123 167 -123 5 0 17 -9 27 -20 10 -11 30 -26 44 -34 116 -61 147 -76 160 -76
9 0 22 -4 29 -9 20 -12 -59 -83 -135 -122 -53 -27 -72 -31 -137 -31 -57 0 -86
5 -121 22 -151 73 -223 206 -209 390 3 47 7 91 9 98 6 18 26 15 51 -9z m824
-504 c27 -13 51 -29 55 -35 3 -5 28 -19 55 -31 27 -11 56 -29 66 -40 9 -10 22
-19 28 -19 11 0 38 -19 94 -66 l25 -21 -39 -54 c-52 -72 -85 -141 -104 -218
l-16 -65 -22 36 c-12 19 -22 40 -22 46 0 6 -11 35 -24 64 -14 29 -45 105 -69
168 -31 80 -51 117 -66 124 -18 8 -21 18 -21 73 0 34 2 63 5 63 3 0 28 -11 55
-25z"/>
<path d="M7781 6288 c-8 -21 -8 -35 -1 -42 5 -5 10 -8 11 -5 3 23 5 79 3 79
-1 0 -7 -14 -13 -32z"/>
<path d="M6040 5741 c-25 -10 -58 -26 -75 -34 -29 -16 -171 -149 -208 -196
-31 -38 -77 -137 -77 -164 0 -34 45 -70 70 -57 33 18 41 12 25 -19 -9 -18 -11
-32 -5 -36 12 -7 63 18 110 55 19 15 67 42 105 60 66 32 78 34 201 38 126 4
133 3 225 -28 52 -18 117 -45 145 -61 28 -16 54 -26 57 -22 25 25 -15 179 -65
251 -52 75 -147 160 -218 194 -56 27 -78 32 -155 35 -71 3 -99 -1 -135 -16z"/>
<path d="M4197 5610 c-59 -7 -99 -19 -165 -51 -48 -23 -89 -45 -92 -49 -3 -4
-16 -13 -30 -20 -36 -19 -118 -87 -166 -139 -111 -118 -160 -286 -94 -321 30
-16 88 2 223 71 235 120 391 160 546 139 91 -12 147 -36 247 -107 75 -53 94
-55 94 -10 0 62 -24 120 -133 332 -23 43 -84 99 -142 128 -59 30 -167 40 -288
27z"/>
<path d="M2860 5240 c0 -5 5 -10 10 -10 6 0 10 5 10 10 0 6 -4 10 -10 10 -5 0
-10 -4 -10 -10z"/>
<path d="M6185 4930 c-3 -5 -1 -10 4 -10 6 0 11 5 11 10 0 6 -2 10 -4 10 -3 0
-8 -4 -11 -10z"/>
<path d="M5610 2909 c0 -46 20 -106 42 -126 19 -17 20 -17 34 2 28 38 8 107
-40 139 -34 22 -36 21 -36 -15z"/>
<path d="M8357 87 c-15 -20 -27 -42 -27 -49 0 -36 19 -38 317 -38 l293 0 0 39
0 40 -152 -1 c-99 0 -185 6 -243 17 -171 31 -158 31 -188 -8z"/>
</g>
</svg>
